<?xml version="1.0" encoding="UTF-8" standalone="no"?>
<!-- Created with Inkscape (http://www.inkscape.org/) -->

<!-- Icon created for SceneHere (c) 2010 Simon Brooke $Revision: 1.2 $ -->

<svg
   xmlns:dc="http://purl.org/dc/elements/1.1/"
   xmlns:cc="http://creativecommons.org/ns#"
   xmlns:rdf="http://www.w3.org/1999/02/22-rdf-syntax-ns#"
   xmlns:svg="http://www.w3.org/2000/svg"
   xmlns="http://www.w3.org/2000/svg"
   xmlns:sodipodi="http://sodipodi.sourceforge.net/DTD/sodipodi-0.dtd"
   xmlns:inkscape="http://www.inkscape.org/namespaces/inkscape"
   width="30.000006"
   height="40.014305"
   id="svg2"
   sodipodi:version="0.32"
   inkscape:version="0.92.3 (2405546, 2018-03-11)"
   sodipodi:docname="Higher-education-pin.svg"
   inkscape:output_extension="org.inkscape.output.svg.inkscape"
   inkscape:export-filename="/home/simon/workspace/geocsv/resources/public/img/map-pins/Higher-education-pin.png"
   inkscape:export-xdpi="95.999985"
   inkscape:export-ydpi="95.999985"
   version="1.1">
  <defs
     id="defs4" />
  <sodipodi:namedview
     id="base"
     pagecolor="#ffffff"
     bordercolor="#666666"
     borderopacity="1.0"
     gridtolerance="10000"
     guidetolerance="10"
     objecttolerance="10"
     inkscape:pageopacity="0.0"
     inkscape:pageshadow="2"
     inkscape:zoom="11.2"
     inkscape:cx="20.179083"
     inkscape:cy="6.9983483"
     inkscape:document-units="px"
     inkscape:current-layer="layer1"
     showgrid="true"
     inkscape:window-width="1920"
     inkscape:window-height="1016"
     inkscape:window-x="0"
     inkscape:window-y="27"
     fit-margin-top="0"
     fit-margin-left="0"
     fit-margin-right="0"
     fit-margin-bottom="0"
     inkscape:window-maximized="1">
    <inkscape:grid
       type="xygrid"
       id="grid2383"
       originx="0"
       originy="0" />
  </sodipodi:namedview>
  <metadata
     id="metadata7">
    <rdf:RDF>
      <cc:Work
         rdf:about="">
        <dc:format>image/svg+xml</dc:format>
        <dc:type
           rdf:resource="http://purl.org/dc/dcmitype/StillImage" />
        <dc:title></dc:title>
        <dc:date>20100801</dc:date>
        <dc:creator>
          <cc:Agent>
            <dc:title>Simon Brooke</dc:title>
          </cc:Agent>
        </dc:creator>
        <dc:rights>
          <cc:Agent>
            <dc:title>Copyright (c) 2010 Simon Brooke</dc:title>
          </cc:Agent>
        </dc:rights>
        <dc:identifier>basic_map_pin.svg</dc:identifier>
        <dc:description>
		Basic default map pin
		$Revision: 1.2 $
	</dc:description>
      </cc:Work>
    </rdf:RDF>
  </metadata>
  <g
     inkscape:label="Layer 1"
     inkscape:groupmode="layer"
     id="layer1"
     transform="translate(-385.35304,-463.7035)">
    <path
       style="fill:#a02c2c;fill-opacity:0.70403586;fill-rule:evenodd;stroke:#4f4f4f;stroke-width:1.31734538;stroke-linecap:butt;stroke-linejoin:miter;stroke-miterlimit:4;stroke-dasharray:none;stroke-opacity:1"
       d="m 391,464.36217 h 18.70608 c 2.49414,1e-5 4.98829,2.52441 4.98829,5.04882 v 18.93304 c 0,2.52441 -2.49415,5.04881 -4.98829,5.04881 h -4.98829 c -2.49414,0 -2.49414,5.89028 -3.74121,8.83542 -1.66277,-2.94514 -2.49415,-8.83542 -4.98829,-8.83542 H 391 c -2.49414,0 -4.98829,-2.5244 -4.98829,-5.04881 v -18.93304 c 0,-2.52441 2.49415,-5.04881 4.98829,-5.04882 z"
       id="path2387"
       sodipodi:nodetypes="cccccccccccc"
       inkscape:connector-curvature="0" />
    <g
       transform="matrix(0.05627646,0,0,0.05627646,387.13409,465.52583)"
       id="g5080">
      <path
         inkscape:connector-curvature="0"
         id="path2"
         d="m 14.277344,128.39062 24.320312,14.30469 c 5.894532,-5 13.125,-8.17187 20.796875,-9.1289 L 231.29297,112.44922 c 4.38672,-0.53906 8.3789,2.57812 8.91797,6.96484 0.53906,4.39063 -2.57813,8.38282 -6.96875,8.92188 L 61.347656,149.45703 c -2.585937,0.33594 -5.101562,1.09375 -7.441406,2.24609 L 232.19531,256.78516 450.11719,128.39063 232.19531,0 Z m 0,0" />
      <path
         inkscape:connector-curvature="0"
         id="path4"
         d="M 228.13281,272.96875 72.195312,181.10547 v 83.28515 c 0,22.02344 19.039063,43.4336 52.234378,58.73829 34.02343,14.58984 70.74609,21.83593 107.76562,21.26171 37.01563,0.57813 73.73828,-6.66796 107.76172,-21.26171 33.19922,-15.30469 52.23828,-36.71485 52.23828,-58.73829 v -83.28515 l -155.93359,91.86328 c -2.50781,1.47656 -5.62109,1.47656 -8.12891,0 z m 0,0" />
      <path
         inkscape:connector-curvature="0"
         id="path6"
         d="m 48.195312,440.39062 -16,-88 -32,104 z m 0,0" />
      <path
         inkscape:connector-curvature="0"
         id="path8"
         d="m 56.195312,328.39062 c -0.01562,-10.14062 -6.429687,-19.16796 -16,-22.52734 V 173.27344 c 0.02344,-3.36719 0.757813,-6.69141 2.160157,-9.75391 2.304687,-5.16015 6.355469,-9.33984 11.441406,-11.80859 l -15.25,-9.00781 c -4.144531,3.51562 -7.535156,7.83984 -9.957031,12.70312 -2.847656,5.52734 -4.351563,11.64844 -4.394532,17.86719 V 305.86328 C 12.71875,309.95313 6.136719,322 8.898438,333.86719 c 2.765624,11.86719 13.992187,19.76953 26.09375,18.36719 12.101562,-1.39844 21.226562,-11.66016 21.203124,-23.84376 z m 0,0" />
    </g>
  </g>
</svg>
