<?xml version="1.0" encoding="UTF-8" standalone="no"?>
<!-- Created with Inkscape (http://www.inkscape.org/) -->

<!-- Icon created for SceneHere (c) 2010 Simon Brooke $Revision: 1.2 $ -->

<svg
   xmlns:dc="http://purl.org/dc/elements/1.1/"
   xmlns:cc="http://creativecommons.org/ns#"
   xmlns:rdf="http://www.w3.org/1999/02/22-rdf-syntax-ns#"
   xmlns:svg="http://www.w3.org/2000/svg"
   xmlns="http://www.w3.org/2000/svg"
   xmlns:sodipodi="http://sodipodi.sourceforge.net/DTD/sodipodi-0.dtd"
   xmlns:inkscape="http://www.inkscape.org/namespaces/inkscape"
   width="240.5"
   height="317.00851"
   id="svg2"
   sodipodi:version="0.32"
   inkscape:version="0.92.3 (2405546, 2018-03-11)"
   sodipodi:docname="Other-key-customers-pin.svg"
   inkscape:output_extension="org.inkscape.output.svg.inkscape"
   inkscape:export-filename="/home/simon/workspace/geocsv/resources/public/img/map-pins/Other-key-customers-pin.png"
   inkscape:export-xdpi="11.98"
   inkscape:export-ydpi="11.98"
   version="1.1">
  <defs
     id="defs4">
    <linearGradient
       id="linearGradient3155">
      <stop
         style="stop-color:#ffff67;stop-opacity:1;"
         offset="0"
         id="stop3157" />
      <stop
         id="stop3163"
         offset="1"
         style="stop-color:#ffd200;stop-opacity:0.74789917;" />
      <stop
         style="stop-color:#ffff67;stop-opacity:0;"
         offset="1"
         id="stop3159" />
    </linearGradient>
    <inkscape:perspective
       sodipodi:type="inkscape:persp3d"
       inkscape:vp_x="0 : 526.18109 : 1"
       inkscape:vp_y="0 : 1000 : 0"
       inkscape:vp_z="744.09448 : 526.18109 : 1"
       inkscape:persp3d-origin="372.04724 : 350.78739 : 1"
       id="perspective10" />
  </defs>
  <sodipodi:namedview
     id="base"
     pagecolor="#ffffff"
     bordercolor="#666666"
     borderopacity="1.0"
     gridtolerance="10000"
     guidetolerance="10"
     objecttolerance="10"
     inkscape:pageopacity="0.0"
     inkscape:pageshadow="2"
     inkscape:zoom="0.98994949"
     inkscape:cx="-560.19646"
     inkscape:cy="86.04423"
     inkscape:document-units="px"
     inkscape:current-layer="layer1"
     showgrid="true"
     inkscape:window-width="1920"
     inkscape:window-height="1016"
     inkscape:window-x="0"
     inkscape:window-y="27"
     fit-margin-top="0"
     fit-margin-left="0"
     fit-margin-right="0"
     fit-margin-bottom="0"
     inkscape:window-maximized="1">
    <inkscape:grid
       type="xygrid"
       id="grid2383"
       originx="-384.75"
       originy="-548.24148" />
  </sodipodi:namedview>
  <metadata
     id="metadata7">
    <rdf:RDF>
      <cc:Work
         rdf:about="">
        <dc:format>image/svg+xml</dc:format>
        <dc:type
           rdf:resource="http://purl.org/dc/dcmitype/StillImage" />
        <dc:title>Basic pin for SceneHere</dc:title>
        <dc:date>20100801</dc:date>
        <dc:creator>
          <cc:Agent>
            <dc:title>Simon Brooke</dc:title>
          </cc:Agent>
        </dc:creator>
        <dc:rights>
          <cc:Agent>
            <dc:title>Copyright (c) 2010 Simon Brooke</dc:title>
          </cc:Agent>
        </dc:rights>
        <dc:identifier>basic_map_pin.svg</dc:identifier>
        <dc:description>
		Basic default map pin
		$Revision: 1.2 $
	</dc:description>
      </cc:Work>
    </rdf:RDF>
  </metadata>
  <g
     inkscape:label="Layer 1"
     inkscape:groupmode="layer"
     id="layer1"
     transform="translate(-384.75,-187.11218)">
    <path
       style="fill:#800080;fill-opacity:0.70403586;fill-rule:evenodd;stroke:#4f4f4f;stroke-width:10.5;stroke-linecap:butt;stroke-linejoin:miter;stroke-miterlimit:4;stroke-dasharray:none;stroke-opacity:1"
       d="m 430,192.36218 150,0 c 20,1e-5 40,20.00001 40,40 l 0,150 c 0,20.00001 -20,40.00001 -40,40 l -40,0 c -20,0 -20,46.66667 -30,70 -13.33333,-23.33333 -20,-70 -40,-70 l -40,0 c -20,10e-6 -40,-19.99999 -40,-40 l 0,-150 c 0,-19.99999 20,-39.99999 40,-40 z"
       id="path2387"
       sodipodi:nodetypes="cccccccccccc"
       inkscape:connector-curvature="0" />
    <g
       id="g879"
       transform="matrix(0.69341642,0,0,0.69341642,406.65204,208.70617)">
      <g
         id="g823">
        <path
           id="path821"
           d="m 279.806,235.505 c -0.136,-1.772 -0.928,-3.476 -2.227,-4.747 L 165.336,118.515 c 4.416,-10.403 6.747,-21.669 6.747,-33.312 0,-22.754 -8.875,-44.163 -24.938,-60.266 C 131.059,8.866 109.665,0 86.898,0 64.12,0 42.763,8.869 26.651,24.95 c -33.243,33.225 -33.25,87.266 -0.005,120.488 16.111,16.115 37.475,24.99 60.241,24.99 11.646,0 22.884,-2.35 33.312,-6.772 l 36.874,36.902 c 1.534,1.515 3.557,2.319 5.74,2.248 l 20.095,-0.705 -0.656,20.145 c -0.062,2.125 0.705,4.193 2.245,5.706 1.484,1.512 3.569,2.334 5.685,2.248 l 20.169,-0.689 -0.724,20.123 c -0.063,2.127 0.754,4.199 2.238,5.712 1.534,1.512 3.321,2.325 5.74,2.251 l 20.119,-0.684 -0.674,20.126 c -0.118,2.232 0.822,4.379 2.418,5.903 1.472,1.339 3.309,2.06 5.245,2.06 0.278,0 0.563,-0.012 0.847,-0.037 l 30.851,-3.426 c 4.169,-0.455 7.205,-4.175 6.847,-8.353 z M 76.607,74.915 c -9.476,9.466 -24.796,9.466 -34.252,0 -9.47,-9.469 -9.47,-24.786 0,-34.246 9.456,-9.46 24.771,-9.469 34.252,-0.003 9.457,9.459 9.451,24.786 0,34.249 z m 176.864,163.16 c -1.126,1.126 -2.635,1.688 -4.101,1.688 -1.466,0 -2.976,-0.563 -4.101,-1.688 l -95.501,-95.529 c 2.659,-2.867 5.077,-5.885 7.273,-9.058 l 96.429,96.41 c 2.252,2.252 2.252,5.926 0.001,8.177 z"
           inkscape:connector-curvature="0" />
      </g>
      <g
         id="g825" />
      <g
         id="g827" />
      <g
         id="g829" />
      <g
         id="g831" />
      <g
         id="g833" />
      <g
         id="g835" />
      <g
         id="g837" />
      <g
         id="g839" />
      <g
         id="g841" />
      <g
         id="g843" />
      <g
         id="g845" />
      <g
         id="g847" />
      <g
         id="g849" />
      <g
         id="g851" />
      <g
         id="g853" />
    </g>
  </g>
</svg>
