<?xml version="1.0" encoding="UTF-8" standalone="no"?>
<!-- Created with Inkscape (http://www.inkscape.org/) -->

<!-- Icon created for SceneHere (c) 2010 Simon Brooke $Revision: 1.2 $ -->

<svg
   xmlns:dc="http://purl.org/dc/elements/1.1/"
   xmlns:cc="http://creativecommons.org/ns#"
   xmlns:rdf="http://www.w3.org/1999/02/22-rdf-syntax-ns#"
   xmlns:svg="http://www.w3.org/2000/svg"
   xmlns="http://www.w3.org/2000/svg"
   xmlns:sodipodi="http://sodipodi.sourceforge.net/DTD/sodipodi-0.dtd"
   xmlns:inkscape="http://www.inkscape.org/namespaces/inkscape"
   width="240.5"
   height="317.00851"
   id="svg2"
   sodipodi:version="0.32"
   inkscape:version="0.92.3 (2405546, 2018-03-11)"
   sodipodi:docname="Broadband-supplier-pin.svg"
   inkscape:output_extension="org.inkscape.output.svg.inkscape"
   inkscape:export-filename="/home/simon/workspace/geocsv/resources/public/img/map-pins/Broadband-supplier-pin.ng.png"
   inkscape:export-xdpi="11.98"
   inkscape:export-ydpi="11.98"
   version="1.1">
  <defs
     id="defs4">
    <linearGradient
       id="linearGradient3155">
      <stop
         style="stop-color:#ffff67;stop-opacity:1;"
         offset="0"
         id="stop3157" />
      <stop
         id="stop3163"
         offset="1"
         style="stop-color:#ffd200;stop-opacity:0.74789917;" />
      <stop
         style="stop-color:#ffff67;stop-opacity:0;"
         offset="1"
         id="stop3159" />
    </linearGradient>
    <inkscape:perspective
       sodipodi:type="inkscape:persp3d"
       inkscape:vp_x="0 : 526.18109 : 1"
       inkscape:vp_y="0 : 1000 : 0"
       inkscape:vp_z="744.09448 : 526.18109 : 1"
       inkscape:persp3d-origin="372.04724 : 350.78739 : 1"
       id="perspective10" />
  </defs>
  <sodipodi:namedview
     id="base"
     pagecolor="#ffffff"
     bordercolor="#666666"
     borderopacity="1.0"
     gridtolerance="10000"
     guidetolerance="10"
     objecttolerance="10"
     inkscape:pageopacity="0.0"
     inkscape:pageshadow="2"
     inkscape:zoom="0.98994949"
     inkscape:cx="-556.15585"
     inkscape:cy="86.04423"
     inkscape:document-units="px"
     inkscape:current-layer="layer1"
     showgrid="true"
     inkscape:window-width="1920"
     inkscape:window-height="1016"
     inkscape:window-x="0"
     inkscape:window-y="27"
     fit-margin-top="0"
     fit-margin-left="0"
     fit-margin-right="0"
     fit-margin-bottom="0"
     inkscape:window-maximized="1">
    <inkscape:grid
       type="xygrid"
       id="grid2383"
       originx="-384.75"
       originy="-548.24148" />
  </sodipodi:namedview>
  <metadata
     id="metadata7">
    <rdf:RDF>
      <cc:Work
         rdf:about="">
        <dc:format>image/svg+xml</dc:format>
        <dc:type
           rdf:resource="http://purl.org/dc/dcmitype/StillImage" />
        <dc:title>Basic pin for SceneHere</dc:title>
        <dc:date>20100801</dc:date>
        <dc:creator>
          <cc:Agent>
            <dc:title>Simon Brooke</dc:title>
          </cc:Agent>
        </dc:creator>
        <dc:rights>
          <cc:Agent>
            <dc:title>Copyright (c) 2010 Simon Brooke</dc:title>
          </cc:Agent>
        </dc:rights>
        <dc:identifier>basic_map_pin.svg</dc:identifier>
        <dc:description>
		Basic default map pin
		$Revision: 1.2 $
	</dc:description>
      </cc:Work>
    </rdf:RDF>
  </metadata>
  <g
     inkscape:label="Layer 1"
     inkscape:groupmode="layer"
     id="layer1"
     transform="translate(-384.75,-187.11218)">
    <path
       style="fill:#c83737;fill-opacity:0.70403586;fill-rule:evenodd;stroke:#4f4f4f;stroke-width:10.5;stroke-linecap:butt;stroke-linejoin:miter;stroke-miterlimit:4;stroke-dasharray:none;stroke-opacity:1"
       d="m 430,192.36218 150,0 c 20,1e-5 40,20.00001 40,40 l 0,150 c 0,20.00001 -20,40.00001 -40,40 l -40,0 c -20,0 -20,46.66667 -30,70 -13.33333,-23.33333 -20,-70 -40,-70 l -40,0 c -20,10e-6 -40,-19.99999 -40,-40 l 0,-150 c 0,-19.99999 20,-39.99999 40,-40 z"
       id="path2387"
       sodipodi:nodetypes="cccccccccccc"
       inkscape:connector-curvature="0" />
    <g
       id="g900"
       transform="matrix(0.42778362,0,0,0.42778362,404.47064,205.47142)"
       style="fill:#000000;fill-opacity:1">
      <g
         id="g837"
         style="fill:#000000;fill-opacity:1">
        <g
           id="g835"
           style="fill:#000000;fill-opacity:1">
          <g
             id="g833"
             style="fill:#000000;fill-opacity:1">
            <path
               id="path821"
               d="m 197.945,133.781 c -34.002,-23.38 -79.25,-22.763 -112.595,1.533 -3.348,2.439 -4.084,7.131 -1.645,10.479 1.468,2.015 3.752,3.084 6.068,3.084 1.532,0 3.078,-0.469 4.411,-1.439 28.211,-20.556 66.494,-21.079 95.262,-1.297 3.414,2.347 8.083,1.483 10.43,-1.931 2.347,-3.413 1.482,-8.082 -1.931,-10.429 z"
               inkscape:connector-curvature="0"
               style="fill:#000000;fill-opacity:1" />
            <path
               id="path823"
               d="m 177.736,160.474 c -21.796,-14.987 -50.802,-14.594 -72.178,0.982 -3.348,2.439 -4.084,7.131 -1.645,10.479 1.468,2.015 3.752,3.084 6.068,3.084 1.532,0 3.078,-0.468 4.41,-1.439 16.244,-11.835 38.284,-12.134 54.846,-0.746 3.414,2.346 8.083,1.483 10.43,-1.931 2.348,-3.413 1.483,-8.082 -1.931,-10.429 z"
               inkscape:connector-curvature="0"
               style="fill:#000000;fill-opacity:1" />
            <path
               id="path825"
               d="m 157.906,189.313 c -4.541,-3.121 -9.919,-4.771 -15.555,-4.771 -5.83,0 -11.576,1.848 -16.181,5.202 -3.348,2.438 -4.084,7.13 -1.646,10.478 1.468,2.016 3.752,3.085 6.068,3.085 1.533,-10e-4 3.078,-0.468 4.411,-1.44 2.058,-1.499 4.667,-2.325 7.348,-2.325 2.551,0 5.058,0.758 7.058,2.133 3.414,2.348 8.083,1.481 10.429,-1.932 2.346,-3.414 1.481,-8.083 -1.932,-10.43 z"
               inkscape:connector-curvature="0"
               style="fill:#000000;fill-opacity:1" />
            <path
               id="path827"
               d="m 335.232,30 c -4.142,0 -7.5,3.357 -7.5,7.5 v 18 c 0,4.143 3.358,7.5 7.5,7.5 4.142,0 7.5,-3.357 7.5,-7.5 v -18 c 0,-4.143 -3.357,-7.5 -7.5,-7.5 z"
               inkscape:connector-curvature="0"
               style="fill:#000000;fill-opacity:1" />
            <path
               id="path829"
               d="m 365.232,30 c -4.142,0 -7.5,3.357 -7.5,7.5 v 18 c 0,4.143 3.358,7.5 7.5,7.5 4.142,0 7.5,-3.357 7.5,-7.5 v -18 c 0,-4.143 -3.357,-7.5 -7.5,-7.5 z"
               inkscape:connector-curvature="0"
               style="fill:#000000;fill-opacity:1" />
            <path
               id="path831"
               d="m 410.232,78 h -7.5 V 7.5 c 0,-4.143 -3.358,-7.5 -7.5,-7.5 h -90 c -4.142,0 -7.5,3.357 -7.5,7.5 V 78 h -7.5 c -4.142,0 -7.5,3.357 -7.5,7.5 v 90 c 0,19.837 15.484,36.126 35,37.418 V 260.5 c 0,4.143 3.358,7.5 7.5,7.5 h 2.5 v 75.75 c 0,44.802 -36.449,81.25 -81.25,81.25 -44.801,0 -81.25,-36.448 -81.25,-81.25 V 320 h 58.463 c 4.142,0 7.5,-3.357 7.5,-7.5 V 7.5 c 0,-4.143 -3.358,-7.5 -7.5,-7.5 H 59.768 c -4.142,0 -7.5,3.357 -7.5,7.5 v 305 c 0,4.143 3.358,7.5 7.5,7.5 h 60.465 v 23.75 c 0,69.614 56.636,126.25 126.25,126.25 69.614,0 126.25,-56.636 126.25,-126.25 V 268 h 2.5 c 4.142,0 7.5,-3.357 7.5,-7.5 v -47.582 c 19.516,-1.292 35,-17.581 35,-37.418 v -90 C 417.732,81.357 414.375,78 410.232,78 Z m -97.5,-63 h 75 v 63 h -75 z M 67.268,305 V 15 h 148.928 v 290 z m 290.464,38.75 c 0,61.344 -49.907,111.25 -111.25,111.25 -61.343,0 -111.25,-49.906 -111.25,-111.25 V 320 h 15 v 23.75 c 0,53.072 43.178,96.25 96.25,96.25 53.072,0 96.25,-43.178 96.25,-96.25 V 268 h 15 z m 45,-168.25 c 0,12.406 -10.093,22.5 -22.5,22.5 h -25 c -4.142,0 -7.5,3.357 -7.5,7.5 0,4.143 3.358,7.5 7.5,7.5 h 12.5 v 40 h -35 v -47.5 c 0,-4.143 -3.358,-7.5 -7.5,-7.5 h -5 c -12.407,0 -22.5,-10.094 -22.5,-22.5 V 93 h 105 z"
               inkscape:connector-curvature="0"
               style="fill:#000000;fill-opacity:1" />
          </g>
        </g>
      </g>
      <g
         id="g839"
         style="fill:#000000;fill-opacity:1" />
      <g
         id="g841"
         style="fill:#000000;fill-opacity:1" />
      <g
         id="g843"
         style="fill:#000000;fill-opacity:1" />
      <g
         id="g845"
         style="fill:#000000;fill-opacity:1" />
      <g
         id="g847"
         style="fill:#000000;fill-opacity:1" />
      <g
         id="g849"
         style="fill:#000000;fill-opacity:1" />
      <g
         id="g851"
         style="fill:#000000;fill-opacity:1" />
      <g
         id="g853"
         style="fill:#000000;fill-opacity:1" />
      <g
         id="g855"
         style="fill:#000000;fill-opacity:1" />
      <g
         id="g857"
         style="fill:#000000;fill-opacity:1" />
      <g
         id="g859"
         style="fill:#000000;fill-opacity:1" />
      <g
         id="g861"
         style="fill:#000000;fill-opacity:1" />
      <g
         id="g863"
         style="fill:#000000;fill-opacity:1" />
      <g
         id="g865"
         style="fill:#000000;fill-opacity:1" />
      <g
         id="g867"
         style="fill:#000000;fill-opacity:1" />
    </g>
  </g>
</svg>
