<?xml version="1.0" encoding="UTF-8" standalone="no"?>
<!-- Created with Inkscape (http://www.inkscape.org/) -->

<!-- Icon created for SceneHere (c) 2010 Simon Brooke $Revision: 1.2 $ -->

<svg
   xmlns:dc="http://purl.org/dc/elements/1.1/"
   xmlns:cc="http://creativecommons.org/ns#"
   xmlns:rdf="http://www.w3.org/1999/02/22-rdf-syntax-ns#"
   xmlns:svg="http://www.w3.org/2000/svg"
   xmlns="http://www.w3.org/2000/svg"
   xmlns:sodipodi="http://sodipodi.sourceforge.net/DTD/sodipodi-0.dtd"
   xmlns:inkscape="http://www.inkscape.org/namespaces/inkscape"
   width="30.000006"
   height="40.014305"
   id="svg2"
   sodipodi:version="0.32"
   inkscape:version="0.92.3 (2405546, 2018-03-11)"
   sodipodi:docname="Champion-pin.svg"
   inkscape:output_extension="org.inkscape.output.svg.inkscape"
   inkscape:export-filename="/home/simon/workspace/geocsv/resources/public/img/map-pins/Champion-pin.png"
   inkscape:export-xdpi="95.965683"
   inkscape:export-ydpi="95.965683"
   version="1.1">
  <defs
     id="defs4" />
  <sodipodi:namedview
     id="base"
     pagecolor="#ffffff"
     bordercolor="#666666"
     borderopacity="1.0"
     gridtolerance="10000"
     guidetolerance="10"
     objecttolerance="10"
     inkscape:pageopacity="0.0"
     inkscape:pageshadow="2"
     inkscape:zoom="11.2"
     inkscape:cx="9.405576"
     inkscape:cy="11.480203"
     inkscape:document-units="px"
     inkscape:current-layer="layer1"
     showgrid="true"
     inkscape:window-width="1920"
     inkscape:window-height="1016"
     inkscape:window-x="0"
     inkscape:window-y="27"
     fit-margin-top="0"
     fit-margin-left="0"
     fit-margin-right="0"
     fit-margin-bottom="0"
     inkscape:window-maximized="1">
    <inkscape:grid
       type="xygrid"
       id="grid2383"
       originx="0"
       originy="0" />
  </sodipodi:namedview>
  <metadata
     id="metadata7">
    <rdf:RDF>
      <cc:Work
         rdf:about="">
        <dc:format>image/svg+xml</dc:format>
        <dc:type
           rdf:resource="http://purl.org/dc/dcmitype/StillImage" />
        <dc:title></dc:title>
        <dc:date>20100801</dc:date>
        <dc:creator>
          <cc:Agent>
            <dc:title>Simon Brooke</dc:title>
          </cc:Agent>
        </dc:creator>
        <dc:rights>
          <cc:Agent>
            <dc:title>Copyright (c) 2010 Simon Brooke</dc:title>
          </cc:Agent>
        </dc:rights>
        <dc:identifier>basic_map_pin.svg</dc:identifier>
        <dc:description>
		Basic default map pin
		$Revision: 1.2 $
	</dc:description>
      </cc:Work>
    </rdf:RDF>
  </metadata>
  <g
     inkscape:label="Layer 1"
     inkscape:groupmode="layer"
     id="layer1"
     transform="translate(-385.35304,-463.7035)">
    <path
       style="fill:#00ffff;fill-opacity:0.70588237;fill-rule:evenodd;stroke:#4f4f4f;stroke-width:1.31734538;stroke-linecap:butt;stroke-linejoin:miter;stroke-miterlimit:4;stroke-dasharray:none;stroke-opacity:1"
       d="m 391,464.36217 h 18.70608 c 2.49414,1e-5 4.98829,2.52441 4.98829,5.04882 v 18.93304 c 0,2.52441 -2.49415,5.04881 -4.98829,5.04881 h -4.98829 c -2.49414,0 -2.49414,5.89028 -3.74121,8.83542 -1.66277,-2.94514 -2.49415,-8.83542 -4.98829,-8.83542 H 391 c -2.49414,0 -4.98829,-2.5244 -4.98829,-5.04881 v -18.93304 c 0,-2.52441 2.49415,-5.04881 4.98829,-5.04882 z"
       id="path2387"
       sodipodi:nodetypes="cccccccccccc"
       inkscape:connector-curvature="0"
       inkscape:export-xdpi="95.965683"
       inkscape:export-ydpi="95.965683" />
    <g
       id="g869"
       transform="matrix(0.05075218,0,0,0.05075218,391.6632,466.58012)">
      <path
         id="path814"
         d="M 311.88207,35.593181 V 5.8203806 H 33.135963 V 35.593181 h -95.129292 v 23.231787 c 0,76.479742 29.787193,123.584472 54.7723223,149.620292 21.9154717,22.82747 43.7576687,33.83297 53.0124377,37.80939 17.746703,37.03347 52.55055,64.33197 94.242149,71.71694 v 85.07897 H 80.828184 v 58.07227 H 264.19247 v -58.07227 h -59.21325 v -85.08028 c 41.69552,-7.38497 76.50591,-34.68478 94.24869,-71.71694 9.24823,-3.97511 31.09958,-14.98061 53.00851,-37.80939 24.99037,-26.03451 54.77756,-73.13924 54.77756,-149.620291 V 35.593181 Z M 33.135963,182.98647 C 13.354597,165.02387 -9.1117378,133.71362 -14.396626,82.052829 h 47.532589 z m 181.643647,11.57206 -42.26863,-22.22165 -42.26733,22.22165 8.06407,-47.06808 -34.18887,-33.33314 47.2565,-6.86028 21.13432,-42.820804 21.12647,42.820804 47.26043,6.86028 -34.19411,33.33314 z m 97.10246,-11.49617 V 82.052829 h 47.53651 c -5.26133,51.768081 -27.71327,83.065251 -47.53651,101.009531 z"
         inkscape:connector-curvature="0"
         style="stroke-width:1.30846441" />
      <g
         id="g816">
</g>
      <g
         id="g818">
</g>
      <g
         id="g820">
</g>
      <g
         id="g822">
</g>
      <g
         id="g824">
</g>
      <g
         id="g826">
</g>
      <g
         id="g828">
</g>
      <g
         id="g830">
</g>
      <g
         id="g832">
</g>
      <g
         id="g834">
</g>
      <g
         id="g836">
</g>
      <g
         id="g838">
</g>
      <g
         id="g840">
</g>
      <g
         id="g842">
</g>
      <g
         id="g844">
</g>
    </g>
  </g>
</svg>
