<?xml version="1.0" encoding="UTF-8" standalone="no"?>
<!-- Created with Inkscape (http://www.inkscape.org/) -->

<!-- Icon created for SceneHere (c) 2010 Simon Brooke $Revision: 1.2 $ -->

<svg
   xmlns:dc="http://purl.org/dc/elements/1.1/"
   xmlns:cc="http://creativecommons.org/ns#"
   xmlns:rdf="http://www.w3.org/1999/02/22-rdf-syntax-ns#"
   xmlns:svg="http://www.w3.org/2000/svg"
   xmlns="http://www.w3.org/2000/svg"
   xmlns:sodipodi="http://sodipodi.sourceforge.net/DTD/sodipodi-0.dtd"
   xmlns:inkscape="http://www.inkscape.org/namespaces/inkscape"
   width="30.000006"
   height="40.014305"
   id="svg2"
   sodipodi:version="0.32"
   inkscape:version="0.92.3 (2405546, 2018-03-11)"
   sodipodi:docname="Developer-pin.svg"
   inkscape:output_extension="org.inkscape.output.svg.inkscape"
   inkscape:export-filename="/home/simon/workspace/geocsv/resources/public/img/map-pins/Developer-pin.png"
   inkscape:export-xdpi="95.965683"
   inkscape:export-ydpi="95.965683"
   version="1.1">
  <defs
     id="defs4" />
  <sodipodi:namedview
     id="base"
     pagecolor="#ffffff"
     bordercolor="#666666"
     borderopacity="1.0"
     gridtolerance="10000"
     guidetolerance="10"
     objecttolerance="10"
     inkscape:pageopacity="0.0"
     inkscape:pageshadow="2"
     inkscape:zoom="11.2"
     inkscape:cx="-36.012369"
     inkscape:cy="19.198946"
     inkscape:document-units="px"
     inkscape:current-layer="layer1"
     showgrid="true"
     inkscape:window-width="1920"
     inkscape:window-height="1016"
     inkscape:window-x="0"
     inkscape:window-y="27"
     fit-margin-top="0"
     fit-margin-left="0"
     fit-margin-right="0"
     fit-margin-bottom="0"
     inkscape:window-maximized="1">
    <inkscape:grid
       type="xygrid"
       id="grid2383"
       originx="0"
       originy="0" />
  </sodipodi:namedview>
  <metadata
     id="metadata7">
    <rdf:RDF>
      <cc:Work
         rdf:about="">
        <dc:format>image/svg+xml</dc:format>
        <dc:type
           rdf:resource="http://purl.org/dc/dcmitype/StillImage" />
        <dc:title />
        <dc:date>20100801</dc:date>
        <dc:creator>
          <cc:Agent>
            <dc:title>Simon Brooke</dc:title>
          </cc:Agent>
        </dc:creator>
        <dc:rights>
          <cc:Agent>
            <dc:title>Copyright (c) 2010 Simon Brooke</dc:title>
          </cc:Agent>
        </dc:rights>
        <dc:identifier>basic_map_pin.svg</dc:identifier>
        <dc:description>
		Basic default map pin
		$Revision: 1.2 $
	</dc:description>
      </cc:Work>
    </rdf:RDF>
  </metadata>
  <g
     inkscape:label="Layer 1"
     inkscape:groupmode="layer"
     id="layer1"
     transform="translate(-385.35304,-463.7035)">
    <path
       style="fill:#ffff00;fill-opacity:0.70403586;fill-rule:evenodd;stroke:#4f4f4f;stroke-width:1.31734538;stroke-linecap:butt;stroke-linejoin:miter;stroke-miterlimit:4;stroke-dasharray:none;stroke-opacity:1"
       d="m 391,464.36217 h 18.70608 c 2.49414,1e-5 4.98829,2.52441 4.98829,5.04882 v 18.93304 c 0,2.52441 -2.49415,5.04881 -4.98829,5.04881 h -4.98829 c -2.49414,0 -2.49414,5.89028 -3.74121,8.83542 -1.66277,-2.94514 -2.49415,-8.83542 -4.98829,-8.83542 H 391 c -2.49414,0 -4.98829,-2.5244 -4.98829,-5.04881 v -18.93304 c 0,-2.52441 2.49415,-5.04881 4.98829,-5.04882 z"
       id="path2387"
       sodipodi:nodetypes="cccccccccccc"
       inkscape:connector-curvature="0" />
    <g
       id="g5786"
       transform="matrix(0.02456532,0,0,0.02456532,387.81701,466.57355)">
      <g
         id="XMLID_291_">
        <path
           d="m 535.9,512.1 c 20.5,4.8 41.2,-8 45.9,-28.7 2.2,-9.8 0.3,-19.5 -4.3,-27.6 l 18.4,-75.5 23,5.6 c 4.9,1.2 10.1,0 14.1,-3.3 3.9,-3.3 6,-8.2 5.6,-13.3 L 628.1,215.2 c -0.3,-3.7 -2.9,-6.9 -6.5,-7.8 -3.6,-0.9 -7.4,0.7 -9.4,3.9 l -80.4,131.9 c -2.7,4.3 -3.1,9.7 -1.1,14.4 2,4.7 6,8.2 11,9.4 l 23,5.6 -15.6,63.9 L 468.7,418 378.1,285.4 c -10.8,-15.9 -27,-17 -46.3,-17 0,216.4 0,202.7 0,300.5 h 46 c 0,146.1 0,9.3 0,343 H 285.9 V 670.3 h -33.5 v 241.6 h -91.9 c 0,-332.7 0,-197.2 0,-343 h 45.9 c 0,-97.8 0,-84.1 0,-300.5 -22.2,0 -40.3,2.5 -49.5,22.7 L 29.3,570.7 c -8.8,19.2 -0.3,41.9 19,50.7 19.1,8.8 41.9,0.4 50.7,-18.9 l 61.7,-135.1 v 69.4 h -0.1 c -17.7,0 -32.1,14.4 -32.1,32.1 v 343 c 0,17.7 14.4,32.1 32.1,32.1 0,25.4 20.6,45.9 45.9,45.9 25.4,0 46,-20.6 46,-45.9 6.1,0 11.8,-1.7 16.7,-4.7 4.9,3 10.6,4.7 16.7,4.7 0,25.4 20.6,45.9 45.9,45.9 25.4,0 46,-20.6 46,-45.9 17.7,0 32.1,-14.4 32.1,-32.1 v -343 c 0,-17.7 -14.4,-32.1 -32.1,-32.1 h -0.1 V 420.5 l 36.2,53.1 c 5.4,8 13.7,13.6 23,15.7 z"
           id="XMLID_304_"
           inkscape:connector-curvature="0" />
        <rect
           height="129.2"
           width="61.099998"
           y="268.39999"
           x="238.60001"
           id="XMLID_303_" />
        <path
           d="m 179.8,162.7 c 0.5,49 40.3,88.5 89.4,88.5 49.1,0 88.9,-39.6 89.4,-88.5 17.3,-0.5 31.3,-14.5 31.3,-32 C 389.9,64.2 335.7,10 269.2,10 202.6,10 148.4,64.2 148.4,130.7 c 0,17.5 14,31.5 31.4,32 z M 204.9,70 v 9.1 c 0,8.9 7.2,16.1 16.1,16.1 8.9,0 16,-7.2 16,-16.1 V 48.4 c 5.2,-2 10.5,-3.6 16.1,-4.6 v 35.3 c 0,8.9 7.2,16.1 16.1,16.1 8.8,0 16,-7.2 16,-16.1 V 43.7 c 5.6,1 10.9,2.6 16,4.6 V 79 c 0,8.9 7.2,16.1 16.1,16.1 8.9,0 16.1,-7.2 16.1,-16.1 v -9 c 15,15.9 24.3,37.2 24.3,60.7 H 180.5 c 0,-23.6 9.4,-44.8 24.4,-60.7 z"
           id="XMLID_300_"
           inkscape:connector-curvature="0" />
        <path
           d="M 701.1,881.6 H 503 c -8.9,0 -16.1,7.2 -16.1,16.1 v 71.8 c 0,8.9 7.2,16.1 16.1,16.1 h 198.1 c 8.8,0 16,-7.2 16,-16.1 v -71.8 c 0.1,-8.9 -7.1,-16.1 -16,-16.1 z"
           id="XMLID_299_"
           inkscape:connector-curvature="0" />
        <path
           d="M 958.1,881.6 H 760 c -8.9,0 -16.1,7.2 -16.1,16.1 v 71.8 c 0,8.9 7.2,16.1 16.1,16.1 h 198.1 c 8.8,0 16,-7.2 16,-16.1 v -71.8 c 0.1,-8.9 -7.2,-16.1 -16,-16.1 z"
           id="XMLID_298_"
           inkscape:connector-curvature="0" />
        <path
           d="M 958.1,624.7 H 760 c -8.9,0 -16.1,7.2 -16.1,16.1 v 71.8 c 0,8.9 7.2,16.1 16.1,16.1 h 198.1 c 8.8,0 16,-7.2 16,-16.1 v -71.8 c 0.1,-9 -7.2,-16.1 -16,-16.1 z"
           id="XMLID_297_"
           inkscape:connector-curvature="0" />
        <path
           d="M 701.1,624.7 H 503 c -8.9,0 -16.1,7.2 -16.1,16.1 v 71.8 c 0,8.9 7.2,16.1 16.1,16.1 h 198.1 c 8.8,0 16,-7.2 16,-16.1 v -71.8 c 0.1,-9 -7.1,-16.1 -16,-16.1 z"
           id="XMLID_296_"
           inkscape:connector-curvature="0" />
        <path
           d="M 615.4,769.2 V 841 c 0,8.9 7.2,16.1 16.1,16.1 h 198.1 c 8.8,0 16.1,-7.2 16.1,-16.1 v -71.8 c 0,-8.9 -7.2,-16.1 -16.1,-16.1 H 631.5 c -8.9,0 -16.1,7.2 -16.1,16.1 z"
           id="XMLID_295_"
           inkscape:connector-curvature="0" />
        <path
           d="M 615.4,512.2 V 584 c 0,8.9 7.2,16.1 16.1,16.1 h 198.1 c 8.8,0 16.1,-7.2 16.1,-16.1 v -71.8 c 0,-8.9 -7.2,-16.1 -16.1,-16.1 H 631.5 c -8.9,0.1 -16.1,7.3 -16.1,16.1 z"
           id="XMLID_294_"
           inkscape:connector-curvature="0" />
        <path
           d="m 958.1,753.1 h -75 c -8.9,0 -16,7.2 -16,16.1 V 841 c 0,8.9 7.2,16.1 16,16.1 h 75 c 8.8,0 16,-7.2 16,-16.1 v -71.8 c 0.1,-8.9 -7.2,-16.1 -16,-16.1 z"
           id="XMLID_293_"
           inkscape:connector-curvature="0" />
        <path
           d="m 958.1,496.2 h -75 c -8.9,0 -16,7.2 -16,16.1 V 584 c 0,8.9 7.2,16.1 16,16.1 h 75 c 8.8,0 16,-7.2 16,-16.1 v -71.8 c 0.1,-8.8 -7.2,-16 -16,-16 z"
           id="XMLID_292_"
           inkscape:connector-curvature="0" />
      </g>
      <g
         id="g5756" />
      <g
         id="g5758" />
      <g
         id="g5760" />
      <g
         id="g5762" />
      <g
         id="g5764" />
      <g
         id="g5766" />
      <g
         id="g5768" />
      <g
         id="g5770" />
      <g
         id="g5772" />
      <g
         id="g5774" />
      <g
         id="g5776" />
      <g
         id="g5778" />
      <g
         id="g5780" />
      <g
         id="g5782" />
      <g
         id="g5784" />
    </g>
  </g>
</svg>
