<?xml version="1.0" encoding="UTF-8" standalone="no"?>
<!-- Created with Inkscape (http://www.inkscape.org/) -->

<!-- Icon created for SceneHere (c) 2010 Simon Brooke $Revision: 1.2 $ -->

<svg
   xmlns:dc="http://purl.org/dc/elements/1.1/"
   xmlns:cc="http://creativecommons.org/ns#"
   xmlns:rdf="http://www.w3.org/1999/02/22-rdf-syntax-ns#"
   xmlns:svg="http://www.w3.org/2000/svg"
   xmlns="http://www.w3.org/2000/svg"
   xmlns:sodipodi="http://sodipodi.sourceforge.net/DTD/sodipodi-0.dtd"
   xmlns:inkscape="http://www.inkscape.org/namespaces/inkscape"
   width="240.5"
   height="317.00851"
   id="svg2"
   sodipodi:version="0.32"
   inkscape:version="0.92.3 (2405546, 2018-03-11)"
   sodipodi:docname="Operator-pin.svg"
   inkscape:output_extension="org.inkscape.output.svg.inkscape"
   inkscape:export-filename="/home/simon/workspace/geocsv/resources/public/img/map-pins/Operator-pin.png"
   inkscape:export-xdpi="11.98"
   inkscape:export-ydpi="11.98"
   version="1.1">
  <defs
     id="defs4">
    <linearGradient
       id="linearGradient3155">
      <stop
         style="stop-color:#ffff67;stop-opacity:1;"
         offset="0"
         id="stop3157" />
      <stop
         id="stop3163"
         offset="1"
         style="stop-color:#ffd200;stop-opacity:0.74789917;" />
      <stop
         style="stop-color:#ffff67;stop-opacity:0;"
         offset="1"
         id="stop3159" />
    </linearGradient>
    <inkscape:perspective
       sodipodi:type="inkscape:persp3d"
       inkscape:vp_x="0 : 526.18109 : 1"
       inkscape:vp_y="0 : 1000 : 0"
       inkscape:vp_z="744.09448 : 526.18109 : 1"
       inkscape:persp3d-origin="372.04724 : 350.78739 : 1"
       id="perspective10" />
  </defs>
  <sodipodi:namedview
     id="base"
     pagecolor="#ffffff"
     bordercolor="#666666"
     borderopacity="1.0"
     gridtolerance="10000"
     guidetolerance="10"
     objecttolerance="10"
     inkscape:pageopacity="0.0"
     inkscape:pageshadow="2"
     inkscape:zoom="1.4"
     inkscape:cx="-198.59155"
     inkscape:cy="63.118072"
     inkscape:document-units="px"
     inkscape:current-layer="layer1"
     showgrid="true"
     inkscape:window-width="1920"
     inkscape:window-height="1016"
     inkscape:window-x="0"
     inkscape:window-y="27"
     fit-margin-top="0"
     fit-margin-left="0"
     fit-margin-right="0"
     fit-margin-bottom="0"
     inkscape:window-maximized="1">
    <inkscape:grid
       type="xygrid"
       id="grid2383"
       originx="-384.75"
       originy="-548.24148" />
  </sodipodi:namedview>
  <metadata
     id="metadata7">
    <rdf:RDF>
      <cc:Work
         rdf:about="">
        <dc:format>image/svg+xml</dc:format>
        <dc:type
           rdf:resource="http://purl.org/dc/dcmitype/StillImage" />
        <dc:title>Basic pin for SceneHere</dc:title>
        <dc:date>20100801</dc:date>
        <dc:creator>
          <cc:Agent>
            <dc:title>Simon Brooke</dc:title>
          </cc:Agent>
        </dc:creator>
        <dc:rights>
          <cc:Agent>
            <dc:title>Copyright (c) 2010 Simon Brooke</dc:title>
          </cc:Agent>
        </dc:rights>
        <dc:identifier>basic_map_pin.svg</dc:identifier>
        <dc:description>
		Basic default map pin
		$Revision: 1.2 $
	</dc:description>
      </cc:Work>
    </rdf:RDF>
  </metadata>
  <g
     inkscape:label="Layer 1"
     inkscape:groupmode="layer"
     id="layer1"
     transform="translate(-384.75,-187.11218)">
    <path
       style="fill:#00ff00;fill-opacity:0.70403586;fill-rule:evenodd;stroke:#4f4f4f;stroke-width:10.5;stroke-linecap:butt;stroke-linejoin:miter;stroke-miterlimit:4;stroke-dasharray:none;stroke-opacity:1"
       d="m 430,192.36218 150,0 c 20,1e-5 40,20.00001 40,40 l 0,150 c 0,20.00001 -20,40.00001 -40,40 l -40,0 c -20,0 -20,46.66667 -30,70 -13.33333,-23.33333 -20,-70 -40,-70 l -40,0 c -20,10e-6 -40,-19.99999 -40,-40 l 0,-150 c 0,-19.99999 20,-39.99999 40,-40 z"
       id="path2387"
       sodipodi:nodetypes="cccccccccccc"
       inkscape:connector-curvature="0"
       inkscape:export-xdpi="11.98"
       inkscape:export-ydpi="11.98" />
    <g
       transform="matrix(3.060171,0,0,3.060171,385.23861,206.1161)"
       id="g879">
      <path
         style="fill:#010002"
         d="m 45.957,18.065 c -0.008,-0.012 -0.016,-0.019 -0.023,-0.028 -0.551,-0.88 -1.246,-1.66 -2.06,-2.299 v 7.586 l 3.431,5.059 c 0.955,1.352 0.879,4.329 0,6.336 L 47.106,30.422 42.7,23.673 V 14.95 c -0.507,-0.283 -1.043,-0.518 -1.605,-0.7 v 4.705 h -5.516 v -4.702 c -0.563,0.182 -1.101,0.417 -1.606,0.701 v 8.721 l -4.41,6.749 -0.198,30.266 c 0,1.817 1.475,3.293 3.292,3.293 1.817,0 3.293,-1.476 3.293,-3.293 0,0 1.563,-21.543 2.383,-21.543 0.815,0 2.332,21.543 2.332,21.543 0,1.817 1.476,3.293 3.291,3.293 1.822,0 3.294,-1.476 3.294,-3.293 l 0.029,-21.433 c 1.006,0.484 2.359,0.42 3.217,-0.69 4.219,-5.471 -0.887,-15.654 -4.539,-20.502 z m -9.223,9.022 c -0.568,0 -1.027,-0.462 -1.027,-1.03 0,-0.568 0.459,-1.029 1.027,-1.029 0.568,0 1.029,0.461 1.029,1.029 0.002,0.569 -0.458,1.03 -1.029,1.03 z m 3.198,0 c -0.565,0 -1.027,-0.462 -1.027,-1.03 0,-0.568 0.462,-1.029 1.027,-1.029 0.569,0 1.03,0.461 1.03,1.029 0,0.569 -0.461,1.03 -1.03,1.03 z"
         id="path2"
         inkscape:connector-curvature="0" />
      <path
         style="fill:#010002"
         d="m 32.794,23.323 v -7.581 c -0.949,0.749 -8.955,11.645 -9.261,12.262 -1.37,0.389 -2.756,0.708 -4.15,0.998 V 23 c 3.465,-0.329 6.185,-3.252 6.185,-6.802 v -5.414 h -1.176 v 5.414 c 0,2.086 -1.138,3.907 -2.822,4.89 V 10.775 h -1.176 v 10.833 c -0.855,0.267 -2.322,0.283 -3.234,0.024 V 10.772 H 15.985 V 21.141 C 14.25,20.172 13.073,18.32 13.073,16.198 v -5.414 h -1.176 v 5.414 c 0,3.578 2.765,6.518 6.271,6.807 v 6.245 c -0.021,0.004 -0.042,0.008 -0.062,0.012 -2.533,0.506 -1.986,3.862 0.062,4.48 V 63.98 h 1.214 V 33.793 c 2.239,-0.447 4.467,-0.921 6.644,-1.624 1.288,-0.418 2.224,-1.86 6.768,-8.846 z"
         id="path4"
         inkscape:connector-curvature="0" />
      <path
         style="fill:#010002"
         d="m 36.164,18.366 h 4.338 v -4.283 c -0.693,-0.174 -1.418,-0.269 -2.164,-0.269 -0.75,0 -1.478,0.096 -2.174,0.27 z"
         id="path6"
         inkscape:connector-curvature="0" />
      <circle
         r="4.8714366"
         cy="7.5912037"
         cx="38.29491"
         id="path860"
         style="opacity:1;fill:none;fill-opacity:0.70403586;stroke:#020000;stroke-width:1.28299999;stroke-miterlimit:4;stroke-dasharray:none;stroke-dashoffset:0;stroke-opacity:1" />
      <g
         style="stroke-width:1.28299999;stroke-miterlimit:4;stroke-dasharray:none"
         transform="translate(0.23963355,1)"
         id="g870">
        <path
           style="fill:none;fill-rule:evenodd;stroke:#000000;stroke-width:1.28299999;stroke-linecap:butt;stroke-linejoin:miter;stroke-miterlimit:4;stroke-dasharray:none;stroke-opacity:1"
           d="m 40,5.9830017 h -2 v 2 1"
           id="path864"
           inkscape:connector-curvature="0" />
        <path
           style="fill:none;fill-rule:evenodd;stroke:#000000;stroke-width:1.28299999;stroke-linecap:butt;stroke-linejoin:miter;stroke-miterlimit:4;stroke-dasharray:none;stroke-opacity:1"
           d="m 36,5.9830017 h 1"
           id="path866"
           inkscape:connector-curvature="0" />
      </g>
    </g>
  </g>
</svg>
