<?xml version="1.0" encoding="UTF-8" standalone="no"?>
<!-- Created with Inkscape (http://www.inkscape.org/) -->

<!-- Icon created for SceneHere (c) 2010 Simon Brooke $Revision: 1.2 $ -->

<svg
   xmlns:dc="http://purl.org/dc/elements/1.1/"
   xmlns:cc="http://creativecommons.org/ns#"
   xmlns:rdf="http://www.w3.org/1999/02/22-rdf-syntax-ns#"
   xmlns:svg="http://www.w3.org/2000/svg"
   xmlns="http://www.w3.org/2000/svg"
   xmlns:sodipodi="http://sodipodi.sourceforge.net/DTD/sodipodi-0.dtd"
   xmlns:inkscape="http://www.inkscape.org/namespaces/inkscape"
   width="240.5"
   height="317.00851"
   id="svg2"
   sodipodi:version="0.32"
   inkscape:version="0.92.3 (2405546, 2018-03-11)"
   sodipodi:docname="Investor-pin.svg"
   inkscape:output_extension="org.inkscape.output.svg.inkscape"
   inkscape:export-filename="/home/simon/workspace/geocsv/resources/public/img/map-pins/Investor-pin.png"
   inkscape:export-xdpi="11.98"
   inkscape:export-ydpi="11.98"
   version="1.1">
  <defs
     id="defs4">
    <linearGradient
       id="linearGradient3155">
      <stop
         style="stop-color:#ffff67;stop-opacity:1;"
         offset="0"
         id="stop3157" />
      <stop
         id="stop3163"
         offset="1"
         style="stop-color:#ffd200;stop-opacity:0.74789917;" />
      <stop
         style="stop-color:#ffff67;stop-opacity:0;"
         offset="1"
         id="stop3159" />
    </linearGradient>
    <inkscape:perspective
       sodipodi:type="inkscape:persp3d"
       inkscape:vp_x="0 : 526.18109 : 1"
       inkscape:vp_y="0 : 1000 : 0"
       inkscape:vp_z="744.09448 : 526.18109 : 1"
       inkscape:persp3d-origin="372.04724 : 350.78739 : 1"
       id="perspective10" />
  </defs>
  <sodipodi:namedview
     id="base"
     pagecolor="#ffffff"
     bordercolor="#666666"
     borderopacity="1.0"
     gridtolerance="10000"
     guidetolerance="10"
     objecttolerance="10"
     inkscape:pageopacity="0.0"
     inkscape:pageshadow="2"
     inkscape:zoom="0.98994949"
     inkscape:cx="-560.19646"
     inkscape:cy="82.00362"
     inkscape:document-units="px"
     inkscape:current-layer="layer1"
     showgrid="true"
     inkscape:window-width="1920"
     inkscape:window-height="1016"
     inkscape:window-x="0"
     inkscape:window-y="27"
     fit-margin-top="0"
     fit-margin-left="0"
     fit-margin-right="0"
     fit-margin-bottom="0"
     inkscape:window-maximized="1">
    <inkscape:grid
       type="xygrid"
       id="grid2383"
       originx="-384.75"
       originy="-548.24148" />
  </sodipodi:namedview>
  <metadata
     id="metadata7">
    <rdf:RDF>
      <cc:Work
         rdf:about="">
        <dc:format>image/svg+xml</dc:format>
        <dc:type
           rdf:resource="http://purl.org/dc/dcmitype/StillImage" />
        <dc:title>Basic pin for SceneHere</dc:title>
        <dc:date>20100801</dc:date>
        <dc:creator>
          <cc:Agent>
            <dc:title>Simon Brooke</dc:title>
          </cc:Agent>
        </dc:creator>
        <dc:rights>
          <cc:Agent>
            <dc:title>Copyright (c) 2010 Simon Brooke</dc:title>
          </cc:Agent>
        </dc:rights>
        <dc:identifier>basic_map_pin.svg</dc:identifier>
        <dc:description>
		Basic default map pin
		$Revision: 1.2 $
	</dc:description>
      </cc:Work>
    </rdf:RDF>
  </metadata>
  <g
     inkscape:label="Layer 1"
     inkscape:groupmode="layer"
     id="layer1"
     transform="translate(-384.75,-187.11218)">
    <path
       style="fill:#ff7f2a;fill-opacity:0.70403586;fill-rule:evenodd;stroke:#4f4f4f;stroke-width:10.5;stroke-linecap:butt;stroke-linejoin:miter;stroke-miterlimit:4;stroke-dasharray:none;stroke-opacity:1"
       d="m 430,192.36218 150,0 c 20,1e-5 40,20.00001 40,40 l 0,150 c 0,20.00001 -20,40.00001 -40,40 l -40,0 c -20,0 -20,46.66667 -30,70 -13.33333,-23.33333 -20,-70 -40,-70 l -40,0 c -20,10e-6 -40,-19.99999 -40,-40 l 0,-150 c 0,-19.99999 20,-39.99999 40,-40 z"
       id="path2387"
       sodipodi:nodetypes="cccccccccccc"
       inkscape:connector-curvature="0" />
    <g
       id="g879"
       transform="matrix(0.3328653,0,0,0.3328653,403.1429,206.51503)">
      <g
         id="g823">
        <path
           id="path821"
           d="m 515.77,431.781 c 0,0 -8.917,-201.817 -135.072,-260.518 9.256,-14.101 18.176,-28.427 26.626,-43.018 11.122,-19.209 21.523,-39.136 28.899,-60.119 6.369,-18.114 5.823,-47.837 -11.421,-60.579 -14.977,-11.067 -36.904,-7.818 -53.604,-3.712 -13.713,3.372 -26.816,8.892 -39.847,14.25 -9.108,3.749 -18.35,7.339 -27.793,10.154 -10.094,3.008 -18.161,5.486 -31.057,-1.625 -3.358,-1.854 -6.701,-3.715 -10.149,-5.399 -10.489,-5.129 -20.946,-8.324 -32.719,-8.279 -21.403,0.073 -43.208,11.615 -53.512,30.642 -9.077,16.763 -7.027,32.818 0.289,49.305 10.566,23.817 29.965,44.772 46.745,64.328 3.586,4.178 7.213,8.324 10.879,12.44 C 104.478,226.17 95.389,431.78 95.389,431.78 c 0,0 -16.814,180.221 210.192,180.221 239.387,0 210.189,-180.22 210.189,-180.22 z m -143.939,24.066 c -2.696,7.371 -6.609,14.092 -11.651,19.969 -5.034,5.884 -11.17,10.875 -18.282,14.815 -4.124,2.308 -8.558,4.169 -13.267,5.604 v 11.804 c 0,10.293 -8.349,18.649 -18.654,18.649 h -2.006 c -10.307,0 -18.658,-8.356 -18.658,-18.649 v -9.798 c -3.489,-0.672 -6.883,-1.582 -10.145,-2.739 -6.871,-2.407 -13.223,-5.74 -18.888,-9.89 -5.66,-4.163 -10.673,-9.113 -14.864,-14.721 -2.996,-4.008 -5.564,-8.368 -7.631,-12.951 -3.62,-8.051 -1.102,-17.527 6.015,-22.739 l 3.089,-2.235 c 4.302,-3.14 9.736,-4.295 14.934,-3.157 5.211,1.121 9.679,4.414 12.297,9.048 1,1.778 2.109,3.46 3.336,4.986 2.252,2.858 4.828,5.314 7.658,7.272 2.814,1.955 5.92,3.504 9.237,4.579 3.229,1.039 6.616,1.579 10.071,1.579 4.569,0 8.65,-0.648 12.103,-1.912 3.225,-1.191 5.93,-2.795 8.031,-4.797 2.018,-1.921 3.598,-4.331 4.695,-7.172 1.22,-3.105 1.82,-6.702 1.82,-10.724 0,-4.001 -0.674,-7.226 -2.04,-9.577 -1.614,-2.827 -3.817,-5.299 -6.515,-7.345 -3.283,-2.494 -7.09,-4.721 -11.35,-6.631 -5.08,-2.285 -10.297,-4.547 -15.513,-6.75 -5.619,-2.366 -11.224,-4.964 -16.623,-7.733 -6.129,-3.137 -11.714,-7.021 -16.583,-11.547 -5.204,-4.846 -9.434,-10.717 -12.578,-17.448 -3.229,-6.947 -4.863,-15.182 -4.863,-24.496 0,-7.546 1.351,-14.795 4.03,-21.529 2.664,-6.702 6.483,-12.781 11.34,-18.047 4.845,-5.245 10.726,-9.633 17.506,-13.053 3.598,-1.803 7.419,-3.288 11.432,-4.443 v -10.045 c 0,-10.293 8.351,-18.648 18.658,-18.648 h 2.006 c 10.305,0 18.655,8.354 18.655,18.648 v 9.354 c 6.964,1.672 13.396,4.261 19.223,7.776 7.026,4.219 13.094,9.55 18.079,15.853 5.513,7.009 5.323,16.933 -0.481,23.698 l -2.991,3.496 c -3.443,3.999 -8.409,6.372 -13.699,6.497 -5.296,0.124 -10.356,-1.975 -13.988,-5.811 -0.784,-0.818 -1.592,-1.599 -2.419,-2.341 -2.138,-1.927 -4.438,-3.606 -6.837,-4.983 -2.266,-1.305 -4.704,-2.356 -7.208,-3.086 -2.332,-0.679 -4.714,-1.027 -7.097,-1.027 -3.897,0 -7.352,0.522 -10.241,1.548 -2.696,0.944 -4.945,2.211 -6.673,3.746 -1.662,1.487 -2.885,3.135 -3.754,5.037 -0.84,1.856 -1.255,3.836 -1.255,6.046 0,3.441 0.618,6.178 1.824,8.113 1.574,2.543 3.737,4.785 6.442,6.679 3.36,2.366 7.281,4.518 11.665,6.398 5.16,2.225 10.435,4.494 15.812,6.794 5.706,2.456 11.379,5.19 16.865,8.155 6.19,3.321 11.828,7.493 16.739,12.365 5.2,5.163 9.402,11.389 12.496,18.539 3.13,7.242 4.724,15.922 4.724,25.769 0,8.061 -1.364,15.88 -4.028,23.208 z"
           inkscape:connector-curvature="0" />
      </g>
      <g
         id="g825" />
      <g
         id="g827" />
      <g
         id="g829" />
      <g
         id="g831" />
      <g
         id="g833" />
      <g
         id="g835" />
      <g
         id="g837" />
      <g
         id="g839" />
      <g
         id="g841" />
      <g
         id="g843" />
      <g
         id="g845" />
      <g
         id="g847" />
      <g
         id="g849" />
      <g
         id="g851" />
      <g
         id="g853" />
    </g>
  </g>
</svg>
