<?xml version="1.0" encoding="UTF-8" standalone="no"?>
<!-- Created with Inkscape (http://www.inkscape.org/) -->

<!-- Icon created for SceneHere (c) 2010 Simon Brooke $Revision: 1.2 $ -->

<svg
   xmlns:dc="http://purl.org/dc/elements/1.1/"
   xmlns:cc="http://creativecommons.org/ns#"
   xmlns:rdf="http://www.w3.org/1999/02/22-rdf-syntax-ns#"
   xmlns:svg="http://www.w3.org/2000/svg"
   xmlns="http://www.w3.org/2000/svg"
   xmlns:sodipodi="http://sodipodi.sourceforge.net/DTD/sodipodi-0.dtd"
   xmlns:inkscape="http://www.inkscape.org/namespaces/inkscape"
   width="240.5"
   height="317.00851"
   id="svg2"
   sodipodi:version="0.32"
   inkscape:version="0.92.3 (2405546, 2018-03-11)"
   sodipodi:docname="Landowner-pin.svg"
   inkscape:output_extension="org.inkscape.output.svg.inkscape"
   inkscape:export-filename="/home/simon/workspace/youyesyet/resources/public/img/map-pins/Landowner-pin.png"
   inkscape:export-xdpi="11.98"
   inkscape:export-ydpi="11.98"
   version="1.1">
  <defs
     id="defs4">
    <linearGradient
       id="linearGradient3155">
      <stop
         style="stop-color:#ffff67;stop-opacity:1;"
         offset="0"
         id="stop3157" />
      <stop
         id="stop3163"
         offset="1"
         style="stop-color:#ffd200;stop-opacity:0.74789917;" />
      <stop
         style="stop-color:#ffff67;stop-opacity:0;"
         offset="1"
         id="stop3159" />
    </linearGradient>
    <inkscape:perspective
       sodipodi:type="inkscape:persp3d"
       inkscape:vp_x="0 : 526.18109 : 1"
       inkscape:vp_y="0 : 1000 : 0"
       inkscape:vp_z="744.09448 : 526.18109 : 1"
       inkscape:persp3d-origin="372.04724 : 350.78739 : 1"
       id="perspective10" />
  </defs>
  <sodipodi:namedview
     id="base"
     pagecolor="#ffffff"
     bordercolor="#666666"
     borderopacity="1.0"
     gridtolerance="10000"
     guidetolerance="10"
     objecttolerance="10"
     inkscape:pageopacity="0.0"
     inkscape:pageshadow="2"
     inkscape:zoom="0.98994949"
     inkscape:cx="-351.09488"
     inkscape:cy="86.04423"
     inkscape:document-units="px"
     inkscape:current-layer="layer1"
     showgrid="true"
     inkscape:window-width="1920"
     inkscape:window-height="1016"
     inkscape:window-x="0"
     inkscape:window-y="27"
     fit-margin-top="0"
     fit-margin-left="0"
     fit-margin-right="0"
     fit-margin-bottom="0"
     inkscape:window-maximized="1">
    <inkscape:grid
       type="xygrid"
       id="grid2383"
       originx="-384.75"
       originy="-548.24148" />
  </sodipodi:namedview>
  <metadata
     id="metadata7">
    <rdf:RDF>
      <cc:Work
         rdf:about="">
        <dc:format>image/svg+xml</dc:format>
        <dc:type
           rdf:resource="http://purl.org/dc/dcmitype/StillImage" />
        <dc:title>Basic pin for SceneHere</dc:title>
        <dc:date>20100801</dc:date>
        <dc:creator>
          <cc:Agent>
            <dc:title>Simon Brooke</dc:title>
          </cc:Agent>
        </dc:creator>
        <dc:rights>
          <cc:Agent>
            <dc:title>Copyright (c) 2010 Simon Brooke</dc:title>
          </cc:Agent>
        </dc:rights>
        <dc:identifier>basic_map_pin.svg</dc:identifier>
        <dc:description>
		Basic default map pin
		$Revision: 1.2 $
	</dc:description>
      </cc:Work>
    </rdf:RDF>
  </metadata>
  <g
     inkscape:label="Layer 1"
     inkscape:groupmode="layer"
     id="layer1"
     transform="translate(-384.75,-187.11218)">
    <path
       style="fill:#88aa00;fill-opacity:0.70403586;fill-rule:evenodd;stroke:#4f4f4f;stroke-width:10.5;stroke-linecap:butt;stroke-linejoin:miter;stroke-miterlimit:4;stroke-dasharray:none;stroke-opacity:1"
       d="m 430,192.36218 150,0 c 20,1e-5 40,20.00001 40,40 l 0,150 c 0,20.00001 -20,40.00001 -40,40 l -40,0 c -20,0 -20,46.66667 -30,70 -13.33333,-23.33333 -20,-70 -40,-70 l -40,0 c -20,10e-6 -40,-19.99999 -40,-40 l 0,-150 c 0,-19.99999 20,-39.99999 40,-40 z"
       id="path2387"
       sodipodi:nodetypes="cccccccccccc"
       inkscape:connector-curvature="0" />
    <g
       id="g1588"
       transform="matrix(3.5141182,0,0,3.5141182,405.99846,213.75132)">
      <g
         id="g1530">
        <g
           id="g1528">
          <path
             id="path1524"
             d="m 48.19,31.889 c 0,-2.863 -2.344,-5.453 -6.124,-7.324 0.092,1.926 0.246,4.054 0.494,6.449 l 0.021,0.219 -0.094,0.198 c -0.098,0.203 -2.545,5.015 -15.217,5.015 -0.432,0 -0.781,-0.35 -0.781,-0.781 0,-0.022 0.012,-0.043 0.014,-0.064 0.034,-0.396 0.353,-0.709 0.756,-0.715 0.004,0 0.008,-0.002 0.012,-0.002 0.571,0 1.111,-0.014 1.638,-0.032 C 37.801,34.53 40.457,31.625 40.978,30.907 40.711,28.272 40.55,25.938 40.467,23.857 40.105,14.663 41.305,10.485 42.013,8.026 42.64,5.853 42.736,5.519 41.232,4.013 38.37,1.152 32.217,0.331 28.912,0.096 28.362,0.056 27.893,0.034 27.53,0.02 27.054,0.002 26.761,0.001 26.713,0 v 0.005 c -3.627,-0.031 -10.78,0.331 -13.904,3.455 -3.843,3.843 1.31,2.876 0.512,20.847 -4.109,1.89 -6.695,4.583 -6.695,7.582 0,5.706 9.305,10.332 20.783,10.332 C 38.885,42.222 48.19,37.595 48.19,31.889 Z M 13.909,7.652 c 0.183,-0.391 0.647,-0.56 1.04,-0.375 0.028,0.013 0.691,0.316 1.832,0.707 2.071,0.71 5.727,1.708 10.083,1.807 0.666,0.014 1.35,0.008 2.045,-0.024 2.704,-0.124 5.605,-0.636 8.519,-1.782 0.548,-0.215 1.093,-0.444 1.638,-0.705 0.389,-0.19 0.855,-0.022 1.042,0.368 0.186,0.39 0.021,0.855 -0.368,1.042 -3.717,1.78 -7.435,2.521 -10.832,2.679 -0.485,0.023 -0.963,0.034 -1.434,0.034 -0.199,0 -0.391,-0.008 -0.585,-0.013 C 19.872,11.259 14.619,8.85 14.283,8.692 13.894,8.507 13.726,8.043 13.909,7.652 Z"
             inkscape:connector-curvature="0" />
          <path
             id="path1526"
             d="m 11.902,46.671 c -0.021,0.179 -0.031,0.352 -0.038,0.521 -0.621,0.188 -1.169,0.724 -1.156,1.537 0.031,1.944 0.848,3.24 2.138,3.792 0.96,2.314 3.209,2.919 5.703,1.626 1.497,-0.776 2.839,-1.805 4.198,-2.794 0.469,-0.342 1.979,-1.668 3.005,-2.053 0.148,-0.013 0.291,-0.048 0.426,-0.103 0.065,-0.004 0.12,0.011 0.177,0.021 0.198,0.094 0.418,0.141 0.654,0.133 0.235,0.008 0.456,-0.039 0.653,-0.133 0.059,-0.009 0.112,-0.024 0.179,-0.021 0.135,0.055 0.277,0.09 0.426,0.103 1.025,0.385 2.536,1.711 3.005,2.053 1.359,0.99 2.701,2.018 4.197,2.794 2.494,1.293 4.743,0.688 5.704,-1.626 1.288,-0.552 2.106,-1.848 2.137,-3.792 0.015,-0.813 -0.534,-1.349 -1.155,-1.537 -0.006,-0.169 -0.018,-0.342 -0.039,-0.521 -0.215,-1.845 -3.135,-1.865 -2.917,0 0.179,1.526 -0.049,1.943 -1.626,1.611 -1.519,-0.319 -2.977,-0.84 -4.449,-1.324 -1.861,-0.612 -4.228,-1.521 -6.115,-0.702 -1.888,-0.819 -4.254,0.09 -6.116,0.702 -1.471,0.484 -2.929,1.005 -4.449,1.324 -1.576,0.332 -1.805,-0.085 -1.626,-1.611 0.222,-1.865 -2.699,-1.844 -2.916,0 z"
             inkscape:connector-curvature="0" />
        </g>
      </g>
      <g
         id="g1532" />
      <g
         id="g1534" />
      <g
         id="g1536" />
      <g
         id="g1538" />
      <g
         id="g1540" />
      <g
         id="g1542" />
      <g
         id="g1544" />
      <g
         id="g1546" />
      <g
         id="g1548" />
      <g
         id="g1550" />
      <g
         id="g1552" />
      <g
         id="g1554" />
      <g
         id="g1556" />
      <g
         id="g1558" />
      <g
         id="g1560" />
    </g>
  </g>
</svg>
